<svg xmlns="http://www.w3.org/2000/svg" width="155" height="154" viewBox="0 0 155 154">
    <g fill="none" fill-rule="evenodd" transform="translate(.571)">
        <circle cx="77" cy="77" r="77" fill="#F7F9FB"/>
        <g fill-rule="nonzero">
            <path fill="#FF6060" d="M61.1 126.5c-.267 0-.4 0-.667-.133-1.2-.4-1.866-1.6-1.466-2.8L88.433 33.3c.4-1.2 1.6-1.867 2.8-1.467 1.2.4 1.867 1.6 1.467 2.8l-29.467 90.4c-.266.934-1.2 1.467-2.133 1.467z"/>
            <g fill="#526173">
                <path d="M121.633 57.167h-2.8V51.833c0-1.733-1.466-3.2-3.2-3.2H95.5c-1.067 0-2 .934-2 2 0 1.067.933 2 2 2h19.333V57.167H91.9c-1.067 0-2 .933-2 2 0 1.066.933 2 2 2h28.933v37.6H79.1c-1.067 0-2 .933-2 2 0 1.066.933 2 2 2h42.533c1.734 0 3.2-1.467 3.2-3.2v-39.2c0-1.734-1.466-3.2-3.2-3.2z"/>
                <path d="M81.367 95.833H108.7l.267-1.733c.4-3.2 3.2-6 6.4-6.4l1.733-.267V73.167l-1.733-.267c-3.067-.4-5.867-3.2-6.4-6.4l-.267-1.733H89.367c-1.067 0-2 .933-2 2 0 1.066.933 2 2 2h16c1.2 3.6 4 6.533 7.6 7.6v7.6c-3.6 1.2-6.534 4.133-7.6 7.733h-24c-1.067 0-2 .933-2 2s.933 2.133 2 2.133z"/>
                <path d="M94.167 80.5a8.482 8.482 0 0 0-6-8.133l-1.2 3.866a4.44 4.44 0 0 1 3.2 4.267c0 2.533-2 4.533-4.534 4.533-.533 0-.933-.133-1.466-.266l-1.2 3.866c.8.267 1.733.4 2.666.4 4.667.134 8.534-3.733 8.534-8.533z"/>
            </g>
            <g fill="#526173">
                <path d="M74.7 48.633H36.833c-1.733 0-3.2 1.467-3.2 3.2V57.167H30.7c-1.733 0-3.2 1.466-3.2 3.2v39.2c0 1.733 1.467 3.2 3.2 3.2h27.6c1.067 0 2-.934 2-2 0-1.067-.933-2-2-2H31.5v-37.6h40.4c1.067 0 2-.934 2-2 0-1.067-.8-2-2-2H37.633V52.633H74.7c1.067 0 2-.933 2-2 0-1.066-.8-2-2-2z"/>
                <path d="M69.5 64.5H43.1l-.267 1.733c-.4 3.2-3.2 6-6.4 6.4L34.7 72.9v14.267l1.733.266c3.067.4 5.867 3.2 6.4 6.4l.267 1.734h17.733c1.067 0 2-.934 2-2 0-1.067-.933-2-2-2h-14.4c-1.2-3.6-4-6.534-7.6-7.6v-7.6c3.6-1.2 6.534-4.134 7.6-7.734H69.5c1.067 0 2-.933 2-2 0-1.066-.8-2.133-2-2.133z"/>
                <path d="M56.567 79.833a8.482 8.482 0 0 0 6 8.134l1.2-3.867c-1.867-.667-3.2-2.267-3.2-4.4 0-2.533 2-4.533 4.533-4.533.533 0 .933.133 1.467.266l1.2-3.866c-.8-.267-1.734-.4-2.667-.4-4.667.133-8.533 4-8.533 8.666z"/>
            </g>
        </g>
    </g>
</svg>
