<svg xmlns="http://www.w3.org/2000/svg" xmlns:xlink="http://www.w3.org/1999/xlink" width="71" height="70" viewBox="0 0 71 70">
    <defs>
        <circle id="a" cx="35.017" cy="34.791" r="34.791"/>
    </defs>
    <g fill="none" fill-rule="evenodd" transform="translate(.5)">
        <mask id="b" fill="#fff">
            <use xlink:href="#a"/>
        </mask>
        <use fill="#FEE600" xlink:href="#a"/>
        <ellipse cx="20.141" cy="67.229" fill="#733317" mask="url(#b)" rx="16.369" ry="11.152"/>
        <g mask="url(#b)">
            <g transform="translate(23.574 13.602)">
                <path fill="#519800" d="M11.739 34.532c.958.958 3.57-.101 5.835-2.366s2.623-5.578 2.366-5.835c-.257-.257-3.57.1-5.835 2.365s-3.324 4.877-2.366 5.836z"/>
                <rect width="2.676" height="34.098" x="10.706" y="20.519" fill="#60B500" rx="1.338"/>
                <path fill="#519800" d="M12.725 20.52c.363 0 .657.294.657.657V53.96a.657.657 0 0 1-1.315 0V21.177c0-.363.295-.658.658-.658z"/>
                <path fill="#60B500" d="M12.044 22.848c3.695 0 6.691-5.03 6.691-11.235 0-6.205-5.7-11.235-6.691-11.235-.991 0-6.691 5.03-6.691 11.235 0 6.205 2.996 11.235 6.691 11.235z"/>
                <path fill="#519800" d="M12.044 22.848c3.695 0 6.691-5.03 6.691-11.235 0-6.205-5.7-11.235-6.691-11.235.012.082.892 5.03.892 11.235 0 6.205-.99 11.46-.892 11.235z"/>
                <path fill="#FFF" fill-opacity=".25" fill-rule="nonzero" d="M11.22 10.563c0 1.325 3.51.607 3.5 2.95 0 1.073-.83 1.754-2.006 1.903v1.335h-.924v-1.325a4.306 4.306 0 0 1-2.333-1.027l.522-1.055c.672.598 1.559.962 2.259.962s1.12-.262 1.12-.719c0-1.363-3.51-.588-3.51-2.912 0-.999.757-1.69 1.942-1.839v-1.26l.924-.009v1.26c.719.075 1.419.327 1.941.672l-.504 1.083c-.7-.42-1.456-.635-1.96-.635-.588 0-.97.215-.97.616z"/>
                <path fill="#60B500" d="M11.544 35.981c.678-1.173-1.022-3.423-3.795-5.024-2.774-1.601-6.067-1.09-6.249-.775-.182.315 1.022 3.423 3.795 5.024 2.774 1.602 5.572 1.949 6.25.775z"/>
            </g>
        </g>
        <ellipse cx="51.868" cy="72.582" fill="#733317" mask="url(#b)" rx="25.841" ry="19.627"/>
    </g>
</svg>
