<svg xmlns="http://www.w3.org/2000/svg" width="35" height="35" viewBox="0 0 35 35">
    <g fill="none" fill-rule="evenodd">
        <circle cx="17.5" cy="17.5" r="17.5" fill="#0070F4"/>
        <g fill-rule="nonzero">
            <path fill="#FFF" d="M2.674 0h10.694c.735 0 1.337.602 1.337 1.337V2.54c0 .134-.067.2-.2.2H2.673c-.736 0-1.337-.601-1.337-1.336C1.337.602 1.938 0 2.674 0zM12.031 10.026c0 .735.602 1.337 1.337 1.337h4.01V8.689h-4.01c-.735 0-1.337.602-1.337 1.337zm2.005-.668c.402 0 .669.267.669.668s-.268.668-.669.668c-.4 0-.668-.267-.668-.668s.267-.668.668-.668z" transform="translate(9.525 9.8)"/>
            <path fill="#3AE0C0" d="M13.368 12.7c-1.47 0-2.674-1.203-2.674-2.674 0-1.47 1.204-2.674 2.674-2.674h4.01V5.414c0-.735-.601-1.337-1.336-1.337H1.67c-.535 0-1.003-.267-1.337-.668-.067-.067-.2-.067-.267 0C0 3.409 0 3.476 0 3.543V12.7c0 1.47 1.203 2.673 2.674 2.673h13.368c.735 0 1.336-.601 1.336-1.337V12.7h-4.01z" transform="translate(9.525 9.8)"/>
        </g>
    </g>
</svg>
