<svg xmlns="http://www.w3.org/2000/svg" width="326" height="133" viewBox="0 0 326 133">
    <g fill="none" fill-rule="evenodd" transform="translate(-.5 -47)">
        <circle cx="232.048" cy="128.163" r="3.059" fill="#526173" opacity=".35"/>
        <circle cx="46.209" cy="138.236" r="4.199" fill="#526173"/>
        <circle cx="320.074" cy="134.349" r="4.199" fill="#526173"/>
        <circle cx="296.134" cy="167.409" r="3.059" fill="#19A388"/>
        <circle cx="196.384" cy="173.109" r="3.059" fill="#0070F4" opacity=".35"/>
        <circle cx="195.51" cy="44.341" r="3.059" fill="#19A388"/>
        <circle cx="246.924" cy="163.799" r="4.199" fill="#FFBD46"/>
        <circle cx="42.009" cy="64.058" r="3.059" fill="#FFBD46" opacity=".35"/>
        <circle cx="322.734" cy="89.509" r="3.059" fill="#FFBD46" opacity=".35"/>
        <circle cx="90.934" cy="64.809" r="3.059" fill="#8900F4"/>
        <circle cx="140.334" cy="176.909" r="3.059" fill="#8900F4" opacity=".35"/>
        <circle cx="227.849" cy="71.317" r="4.199" fill="#8900F4"/>
        <circle cx="275.349" cy="69.64" r="3.059" fill="#E00"/>
        <circle cx="89.548" cy="161.514" r="4.199" fill="#E00"/>
        <circle cx="4.674" cy="106.799" r="4.199" fill="#E00" opacity=".2"/>
        <circle cx="270.484" cy="103.759" r="3.059" fill="#0070F4"/>
        <circle cx="79.23" cy="104.481" r="3.059" fill="#0070F4"/>
        <circle cx="24.434" cy="171.209" r="3.059" fill="#0070F4" opacity=".35"/>
        <g transform="translate(116.85 69.35)">
            <circle cx="41.8" cy="41.8" r="41.8" fill="#3AE0C0" stroke="#19CBA9" stroke-width="8.36"/>
            <path fill="#FFF" d="M64.583 29.19c1.234 1.234 1.234 3.236 0 4.47l-24.59 24.591c-.581.58-1.33.888-2.09.923-.874.053-1.765-.253-2.433-.92L22.057 44.84c-1.234-1.235-1.234-3.236 0-4.47 1.235-1.236 3.237-1.236 4.471 0l11.201 11.2 22.383-22.38c1.234-1.235 3.236-1.235 4.47 0z"/>
        </g>
    </g>
</svg>
