<svg xmlns="http://www.w3.org/2000/svg" xmlns:xlink="http://www.w3.org/1999/xlink" width="70" height="70" viewBox="0 0 70 70">
    <defs>
        <circle id="a" cx="34.781" cy="34.555" r="34.555"/>
        <path id="c" d="M.671.938h26.486v27.5H.671z"/>
        <path id="e" d="M.077.077h45.772v20.858H.077z"/>
    </defs>
    <g fill="none" fill-rule="evenodd">
        <mask id="b" fill="#fff">
            <use xlink:href="#a"/>
        </mask>
        <use fill="#3AE0C0" xlink:href="#a"/>
        <rect width="33.77" height="20.852" x="17.878" y="17.223" fill="#232E3B" mask="url(#b)" rx="2.649"/>
        <rect width="12.581" height="2.649" x="28.473" y="21.435" fill="#697D94" mask="url(#b)" rx=".662"/>
        <rect width="26.486" height="4.174" x="21.52" y="29.277" fill="#F7F9FB" mask="url(#b)" rx=".662"/>
        <g mask="url(#b)">
            <g transform="translate(20.85 30.426)">
                <mask id="d" fill="#fff">
                    <use xlink:href="#c"/>
                </mask>
                <g mask="url(#d)">
                    <g transform="rotate(90 22 2.5)">
                        <mask id="f" fill="#fff">
                            <use xlink:href="#e"/>
                        </mask>
                        <path stroke="#87BEFF" stroke-width="1.391" d="M.772.772h44.381V20.24H.772z"/>
                        <path fill="#0070F4" d="M19.5 1.445h24.962v18.119H19.5z" mask="url(#f)"/>
                        <path fill="#87BEFF" d="M46.312 15.296a6.102 6.102 0 1 1 0 12.204 6.102 6.102 0 0 1 0-12.204zm-46.699 0a6.102 6.102 0 1 1 0 12.204 6.102 6.102 0 0 1 0-12.204zm0-21.785a6.102 6.102 0 1 1 0 12.204 6.102 6.102 0 0 1 0-12.204zm46.699 0a6.102 6.102 0 1 1 0 12.204 6.102 6.102 0 0 1 0-12.204z" mask="url(#f)"/>
                        <circle cx="22.963" cy="10.506" r="6.489" fill="#87BEFF" stroke="#0050AF" stroke-width="1.854"/>
                        <text font-family="Montserrat-Medium, Montserrat" font-size="6.489" font-weight="400" letter-spacing="-.803">
                            <tspan x="21" y="12.566" fill="#0070F4">$</tspan>
                        </text>
                        <text font-family="Montserrat-Medium, Montserrat" font-size="6.953" font-weight="400" letter-spacing="-.464">
                            <tspan x="7.261" y="12.87" fill="#A1E0D4">$</tspan>
                        </text>
                        <text font-family="Montserrat-Medium, Montserrat" font-size="6.953" font-weight="400" letter-spacing="-.464">
                            <tspan x="34.492" y="12.87" fill="#87BEFF">$</tspan>
                        </text>
                    </g>
                </g>
            </g>
        </g>
    </g>
</svg>
