<svg xmlns="http://www.w3.org/2000/svg" width="35" height="35" viewBox="0 0 35 35">
    <g fill="none" fill-rule="evenodd">
        <circle cx="17.227" cy="17.227" r="17.227" fill="#3AE0C0"/>
        <circle cx="17.227" cy="17.227" r="11.642" fill="#19A388"/>
        <path fill="#FFF" fill-rule="nonzero" d="M16.595 15.86c0 1.453 4.205.642 4.194 3.482 0 1.353-1.026 2.153-2.446 2.333v1.68h-1.297v-1.68c-1.07-.124-2.085-.575-2.829-1.206l.71-1.454c.812.722 1.962 1.184 2.796 1.184.732 0 1.172-.27 1.172-.755 0-1.488-4.204-.62-4.204-3.416 0-1.24.924-2.085 2.355-2.288v-1.6h1.297v1.589c.901.09 1.758.394 2.4.823l-.687 1.476c-.834-.496-1.826-.811-2.457-.811-.598 0-1.004.214-1.004.642z"/>
    </g>
</svg>
