<svg xmlns="http://www.w3.org/2000/svg" width="35" height="35" viewBox="0 0 35 35">
    <g fill="none" fill-rule="evenodd">
        <circle cx="17.5" cy="17.5" r="17.5" fill="#B1BAC5"/>
        <circle cx="17.5" cy="17.5" r="11.826" fill="#232E3B"/>
        <path fill="#FFF" d="M17.5 11.9c.58 0 1.05.47 1.05 1.05v4.467l3.157 3.157c.379.379.408.974.088 1.386l-.088.1c-.41.41-1.075.41-1.485 0l-3.464-3.466c-.011-.01-.021-.02-.031-.032l-.02-.024c-.019-.02-.035-.04-.05-.06-.007-.012-.016-.023-.024-.035-.048-.07-.087-.144-.116-.22l-.015-.047c-.008-.023-.015-.045-.02-.067l-.01-.048c-.006-.022-.01-.045-.013-.068-.006-.047-.009-.095-.009-.143l.004.098-.004-.078v-4.92c0-.58.47-1.05 1.05-1.05z"/>
    </g>
</svg>
