<svg xmlns="http://www.w3.org/2000/svg" width="100" height="43" viewBox="0 0 100 43">
    <g fill="none" fill-rule="evenodd">
        <path fill="#20282F" d="M4.426 11.201c0-.615.492-1.114 1.1-1.117H16.92c1.285 0 2.281-1.254 1.86-2.618-.254-.82-1.05-1.344-1.9-1.344H5.545C3.056 6.122.51 7.555.51 10.71v18.378c0 3.154 2.546 4.586 5.035 4.586H16.88c.85 0 1.646-.524 1.9-1.343.421-1.365-.575-2.618-1.86-2.618H5.526a1.11 1.11 0 0 1-1.1-1.117v-6.71H15.39c.849 0 1.645-.524 1.899-1.344.055-.179.085-.355.094-.528.002-.038 0-.077 0-.115 0-.038.002-.077 0-.115a2.15 2.15 0 0 0-.094-.528c-.254-.82-1.05-1.344-1.9-1.344H4.427v-6.71M32.04 30.498c-2.234.371-5.758.577-6.702-1.485 0 0-1.39-2.748 1.474-3.813 0 0 2.62-.935 7.4.478-.122 3.856-.309 4.51-2.172 4.82zm-7.75-16.866c-1.087.225-1.863 1.146-1.704 2.215.16 1.068 1.182 1.81 2.281 1.654 0 0 2.552-.668 6.653-.024.839.144 2.691 1.05 2.67 5.276-1.854-.387-6.638-1.339-8.889-.577-2.657.9-3.526 2.25-3.989 3.371-.96 2.326.106 4.606.373 5.114 1.391 2.963 4.491 4.033 7.478 4.033 1.53 0 3.818-.127 5.048-.564 3.592-1.276 4.054-3.974 4.054-10.466 0-6.937-1.664-8.369-5.198-9.796 0 0-4.207-1.182-8.777-.236zM52.05 12.495c-.4-.098-3.989-.898-6.804 1.004-1.532 1.034-2.9 2.824-2.871 4.768l-.028 13.343c0 .878.524 1.7 1.345 1.962 1.364.436 2.616-.594 2.616-1.921V19.213c-.077-1.012.54-1.941 1.112-2.333 1.175-.802 3.081-.595 3.718-.448 1.064.253 2.125-.416 2.379-1.5.254-1.087-.403-2.177-1.467-2.437M64.28 12.245c-6.138-.046-8.348 3.895-8.648 6.077l-.02 13.33c0 1.116.872 2.021 1.948 2.021s1.948-.905 1.948-2.022V19.978c0-.762.878-3.54 4.206-3.686.026 0 .05.005.076.004.176-.01.337-.01.501-.012.16.002.318.002.49.012.026.001.05-.004.075-.004 3.38.148 4.207 2.743 4.207 3.672V31.65c0 1.117.872 2.022 1.948 2.022s1.948-.905 1.948-2.022V18.608l-.02-.286c-.3-2.183-2.516-6.129-8.659-6.077M93.859 12.304a2.037 2.037 0 0 0-2.463 1.478l-3.987 16.062c-2.355.938-3.44-.886-3.44-.886l-3.94-15.196a2.038 2.038 0 0 0-2.48-1.453 2.018 2.018 0 0 0-1.464 2.46l4.025 15.484c.46 1.308 2.09 3.54 5.271 3.606.39.008.74.013 1.06.017-1.535 4.46-4.97 4.908-5.426 4.947a2.025 2.025 0 0 0-1.889 2.137 2.029 2.029 0 0 0 2.156 1.893c2.836-.17 8.025-2.659 9.721-10.598l4.346-17.507a2.018 2.018 0 0 0-1.49-2.444"/>
        <path fill="#F4B64C" d="M96.939 28.571a2.551 2.551 0 1 0 0 5.103 2.551 2.551 0 0 0 0-5.103"/>
        <g fill="#20282F">
            <path d="M31.513.225c1.013.034 2.034.035 3.009.348 1.79.573 3.203 1.684 4.26 3.248.529.785.737 1.679.687 2.631-.021.401-.184.58-.574.526a5.809 5.809 0 0 1-1.088-.27c-.776-.266-1.542-.566-2.316-.842-3.06-1.092-6.085-.976-9.08.267-.774.322-1.549.644-2.384.771-.553.083-.876-.17-.935-.73-.145-1.38.411-2.473 1.355-3.403 1.06-1.043 2.313-1.72 3.733-2.126 1.097-.314 2.21-.387 3.333-.42M64.717.206c.944.015 1.887.048 2.802.293 1.325.355 2.444 1.08 3.422 2.047.665.658 1.231 1.377 1.524 2.29.163.508.224 1.027.202 1.556-.02.487-.238.69-.697.56-.85-.244-1.703-.492-2.523-.82-1.575-.628-3.19-1.025-4.884-1.035-1.644-.01-3.223.34-4.759.934-.794.308-1.61.56-2.418.828a1.16 1.16 0 0 1-.379.037c-.375-.006-.606-.18-.68-.554-.15-.755-.032-1.482.29-2.175.416-.898 1.103-1.56 1.872-2.139C59.905.961 61.522.444 63.26.281c.484-.045.971-.051 1.457-.075"/>
        </g>
    </g>
</svg>
