<svg xmlns="http://www.w3.org/2000/svg" width="155" height="154" viewBox="0 0 155 154">
    <g fill="none" fill-rule="evenodd" transform="translate(.571)">
        <circle cx="77" cy="77" r="77" fill="#F7F9FB"/>
        <path fill="#3AE0C0" d="M61.828 46.097l25.204 6.265a4.536 4.536 0 0 1 2.834 2.134l21.57 37.36a4.536 4.536 0 0 1-1.66 6.196l-32.432 18.724a4.536 4.536 0 0 1-6.196-1.66L49.58 77.76a4.536 4.536 0 0 1-.43-3.528l7.226-24.993a4.536 4.536 0 0 1 5.452-3.142zm12.435 50.611a2.4 2.4 0 1 0 2.4 4.157 2.4 2.4 0 0 0-2.4-4.157zM93.59 86.243l-13.51 7.8a1.8 1.8 0 0 0 1.8 3.118l13.51-7.8a1.8 1.8 0 1 0-1.8-3.118zm-24.126 2.151a2.4 2.4 0 1 0 2.4 4.157 2.4 2.4 0 0 0-2.4-4.157zM88.79 77.93l-13.51 7.8a1.8 1.8 0 0 0 1.8 3.117l13.51-7.8a1.8 1.8 0 0 0-1.8-3.117zm-24.126 2.15a2.4 2.4 0 1 0 2.4 4.157 2.4 2.4 0 0 0-2.4-4.156zM83.99 69.617l-13.51 7.8a1.8 1.8 0 0 0 1.8 3.117l13.51-7.8a1.8 1.8 0 1 0-1.8-3.117zM64.164 56.5a4.21 4.21 0 1 0 4.21 7.29 4.21 4.21 0 0 0-4.21-7.29z"/>
    </g>
</svg>
