<?xml version="1.0" encoding="utf-8"?>
<!-- Generator: Adobe Illustrator 22.0.1, SVG Export Plug-In . SVG Version: 6.00 Build 0)  -->
<svg version="1.1" id="Capa_1" xmlns="http://www.w3.org/2000/svg" xmlns:xlink="http://www.w3.org/1999/xlink" x="0px" y="0px"
	 viewBox="0 0 512 512" style="enable-background:new 0 0 512 512;" xml:space="preserve">
<style type="text/css">
	.st0{fill:#FFFFFF;}
</style>
<g>
	<g>
		<path class="st0" d="M502.4,65.3c-5.8-2.5-12.6-1.4-17.2,2.9l-192,176c-3.3,3-5.2,7.3-5.2,11.8s1.9,8.7,5.2,11.8l192,176
			c3,2.8,6.9,4.2,10.8,4.2c2.2,0,4.4-0.4,6.4-1.3c5.8-2.6,9.6-8.3,9.6-14.7V80C512,73.7,508.3,67.9,502.4,65.3z M480,395.6
			L327.7,256L480,116.4V395.6z"/>
	</g>
</g>
<g>
	<g>
		<path class="st0" d="M218.8,244.2l-192-176c-4.7-4.4-11.5-5.4-17.2-2.9C3.7,67.9,0,73.7,0,80v352c0,6.3,3.7,12.1,9.6,14.7
			c2,0.9,4.3,1.3,6.4,1.3c3.9,0,7.8-1.4,10.8-4.2l192-176c3.3-3,5.2-7.3,5.2-11.8S222.1,247.3,218.8,244.2z M32,395.6V116.4
			L184.3,256L32,395.6z"/>
	</g>
</g>
</svg>
