<?xml version="1.0" encoding="utf-8"?>
<!-- Generator: Adobe Illustrator 22.0.1, SVG Export Plug-In . SVG Version: 6.00 Build 0)  -->
<svg version="1.1" id="_x31_px" xmlns="http://www.w3.org/2000/svg" xmlns:xlink="http://www.w3.org/1999/xlink" x="0px" y="0px"
	 viewBox="0 0 512 512" style="enable-background:new 0 0 512 512;" xml:space="preserve">
<style type="text/css">
	.st0{fill:#FFFFFF;}
</style>
<g id="XMLID_1_">
	<path class="st0" d="M394.7,170.6c6,0,10.7,4.9,10.7,10.7c0,6-4.7,10.7-10.7,10.7H143.1l-10.7-10.7l10.7-10.7L394.7,170.6z"/>
	<path class="st0" d="M368.9,341.3l10.7-10.7l-10.7-10.7h20.5c6,0,10.7,4.9,10.7,10.7c0,6-4.7,10.7-10.7,10.7H368.9z"/>
	<path class="st0" d="M379.5,330.6l-10.7,10.7H117.3c-6,0-10.7-4.7-10.7-10.7c0-5.8,4.7-10.7,10.7-10.7h251.5L379.5,330.6z"/>
	<path class="st0" d="M402.1,323.1c4.3,4.3,4.3,10.9,0,15.1l-64,64c-1.9,1.9-4.7,3-7.5,3c-2.8,0-5.5-1.1-7.5-3
		c-4.3-4.3-4.3-10.9,0-15.1l45.7-45.9h20.5c6,0,10.7-4.7,10.7-10.7c0-5.8-4.7-10.7-10.7-10.7h-20.5l-45.7-45.7
		c-4.3-4.3-4.3-10.9,0-15.1c4.1-4.1,10.9-4.1,14.9,0L402.1,323.1z"/>
	<path class="st0" d="M143.1,170.6l-10.7,10.7l10.7,10.7h-20.5c-6,0-10.7-4.7-10.7-10.7c0-5.8,4.7-10.7,10.7-10.7L143.1,170.6z"/>
	<path class="st0" d="M109.9,173.8l64-64c4.1-4.1,10.9-4.1,14.9,0c4.3,4.3,4.3,10.9,0,15.1l-45.7,45.7h-20.5
		c-6,0-10.7,4.9-10.7,10.7c0,6,4.7,10.7,10.7,10.7h20.5l45.7,45.9c4.3,4.1,4.3,10.9,0,15.1c-1.9,1.9-4.7,3-7.5,3
		c-2.8,0-5.5-1.1-7.5-3l-64-64C105.6,184.7,105.6,178.1,109.9,173.8L109.9,173.8z"/>
	<path class="st0" d="M458.7,21.3H53.3c-17.7,0-32,14.5-32,32v405.3c0,17.7,14.3,32,32,32h405.3c17.7,0,32-14.3,32-32V53.3
		C490.7,35.8,476.4,21.3,458.7,21.3z M458.7,511.9H53.3C23.9,511.9,0,488,0,458.6V53.3C0,24,23.9-0.1,53.3-0.1h405.3
		C488.1-0.1,512,24,512,53.3v405.3C512,488,488.1,511.9,458.7,511.9z"/>
</g>
</svg>
