<?xml version="1.0" encoding="utf-8"?>
<!-- Generator: Adobe Illustrator 22.0.1, SVG Export Plug-In . SVG Version: 6.00 Build 0)  -->
<svg version="1.1" id="_x31_" xmlns="http://www.w3.org/2000/svg" xmlns:xlink="http://www.w3.org/1999/xlink" x="0px" y="0px"
	 viewBox="0 0 512 512" style="enable-background:new 0 0 512 512;" xml:space="preserve">
<style type="text/css">
	.st0{fill:#FFFFFF;}
</style>
<path class="st0" d="M416,512H96c-29.4,0-53.3-23.9-53.3-53.3V53.3C42.7,23.9,66.6,0,96,0h320c29.4,0,53.3,23.9,53.3,53.3v405.3
	C469.3,488.1,445.4,512,416,512z M96,21.3c-17.6,0-32,14.4-32,32v405.3c0,17.6,14.4,32,32,32h320c17.6,0,32-14.4,32-32V53.3
	c0-17.6-14.4-32-32-32H96z"/>
<path class="st0" d="M394.7,426.7H352c-17.6,0-32-14.4-32-32v-64c0-17.6,14.4-32,32-32h42.7c5.9,0,10.7,4.8,10.7,10.7
	s-4.8,10.7-10.7,10.7H352c-5.9,0-10.7,4.8-10.7,10.7v64c0,5.9,4.8,10.7,10.7,10.7h42.7c5.9,0,10.7,4.8,10.7,10.7
	C405.3,421.9,400.6,426.7,394.7,426.7z"/>
<path class="st0" d="M160,426.7h-42.7c-5.9,0-10.7-4.8-10.7-10.7V309.3c0-5.9,4.8-10.7,10.7-10.7H160c17.6,0,32,14.4,32,32v64
	C192,412.3,177.6,426.7,160,426.7z M128,405.3h32c5.9,0,10.7-4.8,10.7-10.7v-64c0-5.9-4.8-10.7-10.7-10.7h-32V405.3z"/>
<path class="st0" d="M266.7,426.7h-21.3c-17.6,0-32-14.4-32-32v-64c0-17.6,14.4-32,32-32h21.3c17.6,0,32,14.4,32,32v64
	C298.7,412.3,284.3,426.7,266.7,426.7z M245.3,320c-5.9,0-10.7,4.8-10.7,10.7v64c0,5.9,4.8,10.7,10.7,10.7h21.3
	c5.9,0,10.7-4.8,10.7-10.7v-64c0-5.9-4.8-10.7-10.7-10.7H245.3z"/>
<path class="st0" d="M117.3,198.7c-5.9,0-10.7-4.8-10.7-10.7V81.3c0-5.9,4.8-10.7,10.7-10.7h32c23.5,0,42.7,19.1,42.7,42.7
	S172.9,156,149.3,156H128v32C128,193.9,123.2,198.7,117.3,198.7z M128,134.7h21.3c11.8,0,21.3-9.6,21.3-21.3S161.1,92,149.3,92H128
	V134.7z"/>
<path class="st0" d="M266.7,198.7H224c-5.9,0-10.7-4.8-10.7-10.7V81.3c0-5.9,4.8-10.7,10.7-10.7h42.7c17.6,0,32,14.4,32,32v64
	C298.7,184.3,284.3,198.7,266.7,198.7z M234.7,177.3h32c5.9,0,10.7-4.8,10.7-10.7v-64c0-5.9-4.8-10.7-10.7-10.7h-32V177.3z"/>
<path class="st0" d="M330.7,198.7c-5.9,0-10.7-4.8-10.7-10.7v-85.3c0-17.6,14.4-32,32-32h42.7c5.9,0,10.7,4.8,10.7,10.7
	S400.6,92,394.7,92H352c-5.9,0-10.7,4.8-10.7,10.7V188C341.3,193.9,336.6,198.7,330.7,198.7z"/>
<path class="st0" d="M394.7,156h-64c-5.9,0-10.7-4.8-10.7-10.7s4.8-10.7,10.7-10.7h64c5.9,0,10.7,4.8,10.7,10.7S400.6,156,394.7,156
	z"/>
</svg>
