<?xml version="1.0" encoding="utf-8"?>
<!-- Generator: Adobe Illustrator 22.0.1, SVG Export Plug-In . SVG Version: 6.00 Build 0)  -->
<svg version="1.1" id="Capa_1" xmlns="http://www.w3.org/2000/svg" xmlns:xlink="http://www.w3.org/1999/xlink" x="0px" y="0px"
	 viewBox="0 0 469.2 469.2" style="enable-background:new 0 0 469.2 469.2;" xml:space="preserve">
<style type="text/css">
	.st0{fill:#FFFFFF;}
</style>
<g>
	<g>
		<path class="st0" d="M379.7,74.9c-99.8-99.8-262.2-99.8-362,0c-4.2,4.2-4.2,10.9,0,15.1s10.9,4.2,15.1,0
			c91.5-91.5,240.4-91.5,331.9,0c2.1,2.1,4.8,3.1,7.6,3.1s5.5-1,7.5-3.1C383.9,85.8,383.9,79,379.7,74.9z"/>
	</g>
</g>
<g>
	<g>
		<path class="st0" d="M380,21.2c-5.9,0-10.7,4.8-10.7,10.7v53.3H316c-5.9,0-10.7,4.8-10.7,10.7s4.8,10.7,10.7,10.7h64
			c5.9,0,10.7-4.8,10.7-10.7v-64C390.7,26,385.9,21.2,380,21.2z"/>
	</g>
</g>
<g>
	<g>
		<path class="st0" d="M424.2,239.5l-80.2-88.1c-15.4-15.4-42.1-15.5-57.7,0.1c-5.1,5.1-8.5,11.1-10.3,17.6
			c-15.6-11.9-39.3-10.6-53.7,3.7c-5.1,5.1-8.5,11.1-10.3,17.6c-15.5-11.9-39.3-10.6-53.7,3.7c-4.9,5-8.4,10.9-10.2,17.2l-37.8-37.8
			c-15.9-15.9-41.7-15.9-57.7,0.1c-15.9,15.9-15.9,41.7,0,57.6l145.2,145.2l-86.1,13.5c-23.3,3.3-40.9,23.6-40.9,47.1
			c0,17.6,14.4,32,32,32h201.2c31.3,0,60.8-12.2,83-34.4l33.5-33.6c22.1-22.1,34.3-51.6,34.3-82.9
			C454.7,289.2,443.8,261.2,424.2,239.5z M287.3,210.3C287.3,210.3,287.3,210.3,287.3,210.3L287.3,210.3
			C287.3,210.3,287.3,210.3,287.3,210.3z M405.3,386.2l-33.6,33.6c-18.2,18.1-42.3,28.1-67.9,28.1H102.7c-5.9,0-10.7-4.8-10.7-10.7
			c0-13,9.7-24.1,22.7-26l107-16.8c4-0.6,7.2-3.4,8.5-7.2c1.2-3.8,0.2-8-2.6-10.8L67.5,216.3c-7.6-7.6-7.6-19.9,0.1-27.6
			c3.8-3.8,8.8-5.7,13.7-5.7s9.9,1.9,13.7,5.7l62.7,62.8c0.1,0.2,0.3,0.3,0.5,0.5l43.6,43.6c4.2,4.2,10.9,4.2,15.1,0
			c4.2-4.2,4.2-10.9,0-15.1l-44-44c-7.2-7.6-7.1-19.6,0.5-27.2c7.3-7.3,20.1-7.3,27.4,0l21,21c0.1,0.1,0.2,0.3,0.4,0.4l22.3,22.3
			c4.2,4.2,10.9,4.2,15.1,0s4.2-10.9,0-15.1l-22.5-22.5c-7.3-7.6-7.2-19.7,0.4-27.3c7.3-7.3,20.1-7.3,27.4,0l22.3,22.3c0,0,0,0,0,0
			l0,0c0,0,0,0,0,0c0,0,0,0,0,0h0c0,0,0,0,0,0c0,0,0,0,0,0c0,0,0,0,0,0s0,0,0,0h0c0,0,0,0,0,0c4.2,3.9,10.8,3.8,14.8-0.3
			c4.1-4.2,4.1-10.9,0-15.1l-1.3-1.3c-7.2-7.6-7.1-19.7,0.5-27.2c7.3-7.3,20.4-7,27.1-0.4l79.9,87.8c16.1,17.7,25,40.6,25,64.5
			C433.4,344,423.4,368.1,405.3,386.2z"/>
	</g>
</g>
</svg>
