<?xml version="1.0" encoding="utf-8"?>
<!-- Generator: Adobe Illustrator 22.0.1, SVG Export Plug-In . SVG Version: 6.00 Build 0)  -->
<svg version="1.1" id="Слой_1" xmlns="http://www.w3.org/2000/svg" xmlns:xlink="http://www.w3.org/1999/xlink" x="0px" y="0px"
	 viewBox="0 0 512 512" style="enable-background:new 0 0 512 512;" xml:space="preserve">
<path d="M202.7,405.3C90.9,405.3,0,314.4,0,202.7C0,90.9,90.9,0,202.7,0c111.7,0,202.7,90.9,202.7,202.7
	C405.3,314.4,314.4,405.3,202.7,405.3z M202.7,32C108.6,32,32,108.6,32,202.7s76.6,170.7,170.7,170.7s170.7-76.6,170.7-170.7
	S296.8,32,202.7,32z"/>
<path d="M496,512c-4.1,0-8.2-1.6-11.3-4.7L323.4,346c-6.2-6.2-6.2-16.4,0-22.6s16.4-6.2,22.6,0l161.3,161.3c6.2,6.2,6.2,16.4,0,22.6
	C504.2,510.4,500.1,512,496,512z"/>
</svg>
