<?xml version="1.0" encoding="utf-8"?>
<!-- Generator: Adobe Illustrator 22.0.1, SVG Export Plug-In . SVG Version: 6.00 Build 0)  -->
<svg version="1.1" id="_x31_" xmlns="http://www.w3.org/2000/svg" xmlns:xlink="http://www.w3.org/1999/xlink" x="0px" y="0px"
	 viewBox="0 0 512 512" style="enable-background:new 0 0 512 512;" xml:space="preserve">
<style type="text/css">
	.st0{fill:#FFFFFF;}
</style>
<path class="st0" d="M117.3,426.7c-5.9,0-10.7-4.8-10.7-10.7V309.3c0-5.9,4.8-10.7,10.7-10.7h32c23.5,0,42.7,19.1,42.7,42.7
	S172.9,384,149.3,384H128v32C128,421.9,123.2,426.7,117.3,426.7z M128,362.7h21.3c11.8,0,21.3-9.6,21.3-21.3s-9.6-21.3-21.3-21.3
	H128V362.7z"/>
<path d="M416,512H96c-29.4,0-53.3-23.9-53.3-53.3V53.3C42.7,23.9,66.6,0,96,0h320c29.4,0,53.3,23.9,53.3,53.3v405.3
	C469.3,488.1,445.4,512,416,512z M96,21.3c-17.6,0-32,14.4-32,32v405.3c0,17.6,14.4,32,32,32h320c17.6,0,32-14.4,32-32V53.3
	c0-17.6-14.4-32-32-32H96z"/>
<path class="st0" d="M266.7,426.7H224c-5.9,0-10.7-4.8-10.7-10.7V309.3c0-5.9,4.8-10.7,10.7-10.7h42.7c17.6,0,32,14.4,32,32v64
	C298.7,412.3,284.3,426.7,266.7,426.7z M234.7,405.3h32c5.9,0,10.7-4.8,10.7-10.7v-64c0-5.9-4.8-10.7-10.7-10.7h-32L234.7,405.3
	L234.7,405.3z"/>
<path class="st0" d="M330.7,426.7c-5.9,0-10.7-4.8-10.7-10.7v-85.3c0-17.6,14.4-32,32-32h42.7c5.9,0,10.7,4.8,10.7,10.7
	s-4.8,10.7-10.7,10.7H352c-5.9,0-10.7,4.8-10.7,10.7V416C341.3,421.9,336.6,426.7,330.7,426.7z"/>
<path class="st0" d="M394.7,384h-64c-5.9,0-10.7-4.8-10.7-10.7s4.8-10.7,10.7-10.7h64c5.9,0,10.7,4.8,10.7,10.7S400.6,384,394.7,384
	z"/>
<path class="st0" d="M416,512H96c-29.4,0-53.3-23.9-53.3-53.3V53.3C42.7,23.9,66.6,0,96,0h320c29.4,0,53.3,23.9,53.3,53.3v405.3
	C469.3,488.1,445.4,512,416,512z M96,21.3c-17.6,0-32,14.4-32,32v405.3c0,17.6,14.4,32,32,32h320c17.6,0,32-14.4,32-32V53.3
	c0-17.6-14.4-32-32-32H96z"/>
<path class="st0" d="M288,198h-64c-5.9,0-10.7-4.8-10.7-10.7V80.7c0-5.9,4.8-10.7,10.7-10.7s10.7,4.8,10.7,10.7v96H288
	c5.9,0,10.7,4.8,10.7,10.7C298.7,193.2,293.9,198,288,198z"/>
<path class="st0" d="M181.3,198c-3.6,0-7.1-1.8-9.2-5.2l-64-106.7c-3.1-5.1-1.4-11.6,3.7-14.6c5-3,11.6-1.4,14.6,3.6l64,106.7
	c3.1,5.1,1.4,11.6-3.7,14.6C185.1,197.5,183.2,198,181.3,198L181.3,198z"/>
<path class="st0" d="M117.3,198c-1.9,0-3.8-0.5-5.5-1.5c-5.1-3-6.7-9.6-3.7-14.6l64-106.7c3.1-5.1,9.7-6.7,14.6-3.6
	c5.1,3,6.7,9.6,3.7,14.6l-64,106.7C124.5,196.2,120.9,198,117.3,198z"/>
<path class="st0" d="M368,198h-37.3c-5.9,0-10.7-4.8-10.7-10.7s4.8-10.7,10.7-10.7H368c8.8,0,16-7.2,16-16s-7.2-16-16-16h-10.7
	c-20.6,0-37.3-16.7-37.3-37.3S336.7,70,357.3,70h37.3c5.9,0,10.7,4.8,10.7,10.7s-4.8,10.7-10.7,10.7h-37.3c-8.8,0-16,7.2-16,16
	s7.2,16,16,16H368c20.6,0,37.3,16.7,37.3,37.3S388.6,198,368,198z"/>
</svg>
