<?xml version="1.0" encoding="utf-8"?>
<!-- Generator: Adobe Illustrator 22.0.1, SVG Export Plug-In . SVG Version: 6.00 Build 0)  -->
<svg version="1.1" id="_x31__x2C_5_px" xmlns="http://www.w3.org/2000/svg" xmlns:xlink="http://www.w3.org/1999/xlink" x="0px"
	 y="0px" viewBox="0 0 512 512" style="enable-background:new 0 0 512 512;" xml:space="preserve">
<style type="text/css">
	.st0{fill:#FFFFFF;}
</style>
<path class="st0" d="M389.3,512H122.7C90.3,512,64,485.7,64,453.3v-288c0-8.8,7.2-16,16-16h352c8.8,0,16,7.2,16,16v288
	C448,485.7,421.7,512,389.3,512z M96,181.3v272c0,14.7,12,26.7,26.7,26.7h266.7c14.7,0,26.7-12,26.7-26.7v-272H96z"/>
<path class="st0" d="M474.7,181.3H37.3c-8.8,0-16-7.2-16-16v-42.7C21.3,90.3,47.6,64,80,64h352c32.4,0,58.7,26.3,58.7,58.7v42.7
	C490.7,174.2,483.5,181.3,474.7,181.3z M53.3,149.3h405.3v-26.7c0-14.7-12-26.7-26.7-26.7H80c-14.7,0-26.7,12-26.7,26.7V149.3z"/>
<path class="st0" d="M325.3,96H186.7c-8.8,0-16-7.2-16-16V37.3C170.7,16.7,187.4,0,208,0h96c20.6,0,37.3,16.7,37.3,37.3V80
	C341.3,88.8,334.2,96,325.3,96z M202.7,64h106.7V37.3c0-2.9-2.4-5.3-5.3-5.3h-96c-2.9,0-5.3,2.4-5.3,5.3V64z"/>
<path class="st0" d="M165.3,426.7c-8.8,0-16-7.2-16-16v-160c0-8.8,7.2-16,16-16c8.8,0,16,7.2,16,16v160
	C181.3,419.5,174.2,426.7,165.3,426.7z"/>
<path class="st0" d="M256,426.7c-8.8,0-16-7.2-16-16v-160c0-8.8,7.2-16,16-16c8.8,0,16,7.2,16,16v160
	C272,419.5,264.8,426.7,256,426.7z"/>
<path class="st0" d="M346.7,426.7c-8.8,0-16-7.2-16-16v-160c0-8.8,7.2-16,16-16c8.8,0,16,7.2,16,16v160
	C362.7,419.5,355.5,426.7,346.7,426.7z"/>
</svg>
