<?xml version="1.0" encoding="utf-8"?>
<!-- Generator: Adobe Illustrator 22.0.1, SVG Export Plug-In . SVG Version: 6.00 Build 0)  -->
<svg version="1.1" id="Слой_1" xmlns="http://www.w3.org/2000/svg" xmlns:xlink="http://www.w3.org/1999/xlink" x="0px" y="0px"
	 viewBox="0 0 512 512" style="enable-background:new 0 0 512 512;" xml:space="preserve">
<style type="text/css">
	.st0{fill:#FFFFFF;}
</style>
<path class="st0" d="M496,426.3c-2.6,0-5.2-0.6-7.7-2L44.4,181.2c-7.8-4.2-10.6-14-6.4-21.7c4.2-7.8,14-10.6,21.7-6.3l443.9,243.1
	c7.7,4.2,10.6,14,6.3,21.7C507.1,423.3,501.6,426.3,496,426.3z"/>
<path class="st0" d="M85.3,191.7c-14.3,0-28.5-3.6-40.9-10.5C17,166.2,0,137.5,0,106.3C0,59.3,38.3,21,85.3,21
	c47.1,0,85.3,38.3,85.3,85.3C170.7,153.4,132.4,191.7,85.3,191.7z M85.3,53C55.9,53,32,76.9,32,106.3c0,19.5,10.6,37.4,27.8,46.8
	c7.8,4.3,16.6,6.5,25.6,6.5c29.4,0,53.3-23.9,53.3-53.3C138.7,76.9,114.7,53,85.3,53z"/>
<path class="st0" d="M52.1,360.1c-5.7,0-11.1-3-14-8.3c-4.2-7.7-1.4-17.5,6.3-21.7L488.3,87c7.7-4.2,17.5-1.4,21.7,6.3
	c4.2,7.7,1.4,17.5-6.3,21.7L59.8,358.2C57.3,359.5,54.7,360.1,52.1,360.1z"/>
<path class="st0" d="M85.3,490.3C38.3,490.3,0,452.1,0,405c0-31.2,17-59.9,44.4-74.9c12.5-6.8,26.6-10.5,40.9-10.5
	c47.1,0,85.3,38.3,85.3,85.3S132.4,490.3,85.3,490.3z M85.3,351.7c-8.9,0-17.8,2.2-25.6,6.5C42.6,367.6,32,385.5,32,405
	c0,29.4,23.9,53.3,53.3,53.3c29.4,0,53.3-23.9,53.3-53.3C138.7,375.6,114.7,351.7,85.3,351.7z"/>
</svg>
