<?xml version="1.0" encoding="utf-8"?>
<!-- Generator: Adobe Illustrator 22.0.1, SVG Export Plug-In . SVG Version: 6.00 Build 0)  -->
<svg version="1.1" id="_x31_" xmlns="http://www.w3.org/2000/svg" xmlns:xlink="http://www.w3.org/1999/xlink" x="0px" y="0px"
	 viewBox="0 0 512 512" style="enable-background:new 0 0 512 512;" xml:space="preserve">
<style type="text/css">
	.st0{fill:#FFFFFF;}
</style>
<path class="st0" d="M385.8,370.5c-2.7,0-5.5-1-7.6-3.1L333,322.1c-4.2-4.2-10.9-4.2-15.1,0c-4.2,4.2-4.2,10.9,0,15.1
	c4.2,4.2,4.2,10.9,0,15.1c-4.2,4.2-10.9,4.2-15.1,0c-12.5-12.5-12.5-32.8,0-45.2c12.5-12.5,32.8-12.5,45.2,0l45.3,45.2
	c4.2,4.2,4.2,10.9,0,15.1C391.3,369.5,388.6,370.5,385.8,370.5z"/>
<path class="st0" d="M355.6,340.3c-2.7,0-5.5-1-7.6-3.1c-12.4-12.5-12.4-32.8,0-45.2c12.1-12.1,33.2-12.1,45.3,0l30.2,30.2
	c4.2,4.2,4.2,10.9,0,15.1c-4.2,4.2-10.9,4.2-15.1,0l-30.2-30.2c-4.2-4.2-10.9-4.1-15.1,0c-4.1,4.2-4.1,10.9,0,15.1s4.2,10.9,0,15.1
	C361.1,339.3,358.4,340.3,355.6,340.3L355.6,340.3z"/>
<path class="st0" d="M389.8,512c-7.9,0-15.7-1-23.5-2.9l-74.4-19c-2.8-0.7-5.1-2.5-6.6-4.9c-5.1-8.7-10.3-29.5,6.2-46.1
	c7.3-7.3,17.2-10.2,26.9-10.9l-91-91c-12.5-12.5-12.5-32.8,0-45.2c12.1-12.1,33.2-12.1,45.3,0l90.5,90.5c4.2,4.2,4.2,10.9,0,15.1
	s-10.9,4.2-15.1,0L257.6,307c-4-4-11-4-15.1,0c-4.2,4.2-4.2,10.9,0,15.1l113.1,113.2c3.5,3.5,4.1,8.9,1.5,13.1
	c-2.6,4.2-7.7,6-12.4,4.5c-9.1-3-30.3-6.6-38.1,1.2c-6,6-5.5,12.6-4.4,16.6l69.3,17.7c25.3,6.5,52.7-1,71.2-19.6l26-26
	c29.1-29.1,29.1-76.5,0-105.6l-45.3-45.2c-4-4-11.1-4-15.1,0c-2,2-3.1,4.7-3.2,7.5c0,2.9,1.1,5.5,3.1,7.6c4.2,4.2,4.2,10.9,0,15.1
	c-4.2,4.2-10.9,4.2-15.1,0c-6.1-6.1-9.4-14.1-9.4-22.7c0-8.5,3.3-16.6,9.4-22.6c12.1-12.1,33.2-12.1,45.2,0l45.2,45.2
	c37.4,37.4,37.4,98.3,0,135.8l-26,26C439.7,502,415,512,389.8,512L389.8,512z"/>
<path class="st0" d="M224,448H53.3C23.9,448,0,424.1,0,394.7V117.3C0,87.9,23.9,64,53.3,64H96c5.9,0,10.7,4.8,10.7,10.7
	S101.9,85.3,96,85.3H53.3c-17.6,0-32,14.4-32,32v277.3c0,17.6,14.4,32,32,32H224c5.9,0,10.7,4.8,10.7,10.7S229.9,448,224,448z"/>
<path class="st0" d="M245.3,128h-128c-17.6,0-32-14.4-32-32V53.3c0-5.9,4.8-10.7,10.7-10.7h33.1C134,18.3,155.6,0,181.3,0
	s47.3,18.3,52.3,42.7h33.1c5.9,0,10.7,4.8,10.7,10.7V96C277.3,113.6,263,128,245.3,128z M106.7,64v32c0,5.9,4.8,10.7,10.7,10.7h128
	c5.9,0,10.7-4.8,10.7-10.7V64h-32c-5.9,0-10.7-4.8-10.7-10.7c0-17.6-14.4-32-32-32s-32,14.4-32,32c0,5.9-4.8,10.7-10.7,10.7H106.7z"
	/>
<path class="st0" d="M352,256c-5.9,0-10.7-4.8-10.7-10.7v-128c0-17.6-14.4-32-32-32h-42.7c-5.9,0-10.7-4.8-10.7-10.7
	S260.8,64,266.7,64h42.7c29.4,0,53.3,23.9,53.3,53.3v128C362.7,251.2,357.9,256,352,256z"/>
<path class="st0" d="M288,192H74.7c-5.9,0-10.7-4.8-10.7-10.7s4.8-10.7,10.7-10.7H288c5.9,0,10.7,4.8,10.7,10.7S293.9,192,288,192z"
	/>
<path class="st0" d="M288,256H74.7c-5.9,0-10.7-4.8-10.7-10.7s4.8-10.7,10.7-10.7H288c5.9,0,10.7,4.8,10.7,10.7S293.9,256,288,256z"
	/>
<path class="st0" d="M181.3,320H74.7c-5.9,0-10.7-4.8-10.7-10.7s4.8-10.7,10.7-10.7h106.7c5.9,0,10.7,4.8,10.7,10.7
	S187.2,320,181.3,320z"/>
</svg>
