<?xml version="1.0" encoding="utf-8"?>
<!-- Generator: Adobe Illustrator 22.0.1, SVG Export Plug-In . SVG Version: 6.00 Build 0)  -->
<svg version="1.1" id="_x31__x2C_5" xmlns="http://www.w3.org/2000/svg" xmlns:xlink="http://www.w3.org/1999/xlink" x="0px"
	 y="0px" viewBox="0 0 512 512" style="enable-background:new 0 0 512 512;" xml:space="preserve">
<style type="text/css">
	.st0{fill:#FFFFFF;}
</style>
<path class="st0" d="M453.3,490.7H58.7C26.3,490.7,0,464.4,0,432V80c0-32.4,26.3-58.7,58.7-58.7h394.7c32.4,0,58.7,26.3,58.7,58.7
	v352C512,464.4,485.7,490.7,453.3,490.7z M58.7,53.3C44,53.3,32,65.3,32,80v352c0,14.7,12,26.7,26.7,26.7h394.7
	c14.7,0,26.7-12,26.7-26.7V80c0-14.7-12-26.7-26.7-26.7H58.7z"/>
<path class="st0" d="M496,128H16c-8.8,0-16-7.2-16-16s7.2-16,16-16h480c8.8,0,16,7.2,16,16S504.8,128,496,128z"/>
<path class="st0" d="M336,261.3c-3.9,0-7.8-1.4-10.9-4.3L256,192.6L186.9,257c-6.5,6.1-16.6,5.7-22.6-0.8c-6-6.5-5.7-16.6,0.8-22.6
	l80-74.7c6.1-5.8,15.7-5.8,21.8,0l80,74.7c6.5,6,6.8,16.1,0.8,22.6C344.5,259.6,340.3,261.3,336,261.3L336,261.3z"/>
<path class="st0" d="M336,426.7c-4.2,0-8.3-1.6-11.5-4.8l-40-41c-6.2-6.3-6-16.4,0.3-22.6c6.3-6.1,16.4-6.1,22.6,0.3l40,41
	c6.2,6.3,6,16.4-0.3,22.6C344.1,425.2,340,426.7,336,426.7z"/>
<path class="st0" d="M176,426.7c-4.1,0-8.2-1.6-11.3-4.7c-6.3-6.3-6.3-16.4,0-22.6L240,324V181.3c0-8.8,7.2-16,16-16
	c8.8,0,16,7.2,16,16v149.3c0,4.2-1.7,8.3-4.7,11.3l-80,80C184.2,425.1,180.1,426.7,176,426.7z"/>
</svg>
