<?xml version="1.0" encoding="utf-8"?>
<!-- Generator: Adobe Illustrator 22.0.1, SVG Export Plug-In . SVG Version: 6.00 Build 0)  -->
<svg version="1.1" id="Слой_1" xmlns="http://www.w3.org/2000/svg" xmlns:xlink="http://www.w3.org/1999/xlink" x="0px" y="0px"
	 viewBox="0 0 512 512" style="enable-background:new 0 0 512 512;" xml:space="preserve">
<style type="text/css">
	.st0{fill:#FFFFFF;}
</style>
<path class="st0" d="M149.7,426.7c-26.3,0-42.7-16.4-42.7-42.7v-5.3c0-8.8,7.2-16,16-16s16,7.2,16,16v5.3c0,8.9,1.8,10.7,10.7,10.7
	c8.8,0,10.7-8.7,10.7-16v-64c0-8.8,7.2-16,16-16s16,7.2,16,16v64C192.3,406.9,174.8,426.7,149.7,426.7z"/>
<path class="st0" d="M389.7,426.7h-32c-20.6,0-37.3-16.7-37.3-37.3V336c0-20.6,16.7-37.3,37.3-37.3h32c8.8,0,16,7.2,16,16
	s-7.2,16-16,16h-32c-2.9,0-5.3,2.4-5.3,5.3v53.3c0,2.9,2.4,5.3,5.3,5.3h16v-6.2c-6.2-2.2-10.7-8.1-10.7-15.1c0-8.8,7.2-16,16-16
	h10.7c8.8,0,16,7.2,16,16v37.3C405.7,419.5,398.5,426.7,389.7,426.7z"/>
<path class="st0" d="M411,512H101.7C69.3,512,43,485.7,43,453.3V58.7C43,26.3,69.3,0,101.7,0H411c32.4,0,58.7,26.3,58.7,58.7v394.7
	C469.7,485.7,443.4,512,411,512z M101.7,32C87,32,75,44,75,58.7v394.7C75,468,87,480,101.7,480H411c14.7,0,26.7-12,26.7-26.7V58.7
	c0-14.7-12-26.7-26.7-26.7H101.7z"/>
<path class="st0" d="M229.7,426.7c-8.8,0-16-7.2-16-16v-96c0-8.8,7.2-16,16-16H251c28.3,0,48,17.5,48,42.7c0,25.1-19.7,42.7-48,42.7
	h-5.3v26.7C245.7,419.5,238.5,426.7,229.7,426.7z M245.7,352h5.3c7.3,0,16-1.9,16-10.7c0-8.8-8.7-10.7-16-10.7h-5.3V352z"/>
<path class="st0" d="M117.3,206.7c-5.9,0-10.7-4.8-10.7-10.7V89.3c0-5.9,4.8-10.7,10.7-10.7h32c23.5,0,42.7,19.1,42.7,42.7
	S172.9,164,149.3,164H128v32C128,201.9,123.2,206.7,117.3,206.7z M128,142.7h21.3c11.8,0,21.3-9.6,21.3-21.3s-9.6-21.3-21.3-21.3
	H128V142.7z"/>
<path class="st0" d="M266.7,206.7H224c-5.9,0-10.7-4.8-10.7-10.7V89.3c0-5.9,4.8-10.7,10.7-10.7h42.7c17.6,0,32,14.4,32,32v64
	C298.7,192.3,284.3,206.7,266.7,206.7z M234.7,185.3h32c5.9,0,10.7-4.8,10.7-10.7v-64c0-5.9-4.8-10.7-10.7-10.7h-32V185.3z"/>
<path class="st0" d="M330.7,206.7c-5.9,0-10.7-4.8-10.7-10.7v-85.3c0-17.6,14.4-32,32-32h42.7c5.9,0,10.7,4.8,10.7,10.7
	s-4.8,10.7-10.7,10.7H352c-5.9,0-10.7,4.8-10.7,10.7V196C341.3,201.9,336.6,206.7,330.7,206.7z"/>
<path class="st0" d="M394.7,164h-64c-5.9,0-10.7-4.8-10.7-10.7s4.8-10.7,10.7-10.7h64c5.9,0,10.7,4.8,10.7,10.7S400.6,164,394.7,164
	z"/>
</svg>
