<?xml version="1.0" encoding="utf-8"?>
<!-- Generator: Adobe Illustrator 22.0.1, SVG Export Plug-In . SVG Version: 6.00 Build 0)  -->
<svg version="1.1" id="_x31__px" xmlns="http://www.w3.org/2000/svg" xmlns:xlink="http://www.w3.org/1999/xlink" x="0px" y="0px"
	 viewBox="0 0 512 512" style="enable-background:new 0 0 512 512;" xml:space="preserve">
<style type="text/css">
	.st0{fill:#FFFFFF;}
</style>
<g id="XMLID_1_">
	<path class="st0" d="M470.6,162.1L171.9,460.6c4.3-4.1,4.3-10.9,0-14.9l-7.5-7.5L448,154.5l-7.5-7.5c1.9,1.9,4.7,3.2,7.5,3.2
		c2.8,0,5.5-1.3,7.5-3.2l7.7-7.5l7.5,7.5C474.7,151,474.7,157.9,470.6,162.1L470.6,162.1z"/>
	<path class="st0" d="M493.2,109.2l-30.1,30.3L448,124.4l30.1-30.3c8.1-7.9,12.6-18.8,12.6-30.1s-4.5-22.2-12.6-30.1
		c-16.4-16.6-43.7-16.6-60.2,0L387.6,64l-14.9-14.9l30.1-30.3c25-25,65.5-25,90.5,0C505.4,30.9,512,46.9,512,64
		S505.4,97.1,493.2,109.2z"/>
	<path class="st0" d="M448,124.4l15.1,15.1l-7.7,7.5c-1.9,1.9-4.7,3.2-7.5,3.2s-5.5-1.3-7.5-3.2L365,71.5c-4.1-4.1-4.1-10.9,0-14.9
		l7.7-7.5L387.6,64L448,124.4z"/>
	<path class="st0" d="M334.7,71.5l-7.5-7.5l22.6-22.6c4.1-4.1,11.1-4.1,15.1,0l7.7,7.7l-7.7,7.5c-4.1,4.1-4.1,10.9,0,14.9l-7.5-7.5
		l-22.6,22.8l-0.2-0.2C339,82.6,339,75.7,334.7,71.5L334.7,71.5z"/>
	<path class="st0" d="M327.3,64l7.5,7.5c4.3,4.3,4.3,11.1,0,15.1c-4.1,4.3-10.9,4.3-14.9,0l-7.5-7.5L327.3,64z"/>
	<path class="st0" d="M168.5,462.9c1.3-0.4,2.6-1.3,3.4-2.3C171.1,461.7,169.8,462.3,168.5,462.9L168.5,462.9z"/>
	<path class="st0" d="M164.5,463.8c-2.8,0-5.5-1.1-7.5-3.2l-12.4-12.4l14.3-4.5l5.5-5.5l7.5,7.5c4.3,4.1,4.3,10.9,0,14.9
		c-0.9,1.1-2.1,1.9-3.4,2.3C167.3,463.6,166,463.8,164.5,463.8L164.5,463.8z"/>
	<path class="st0" d="M259.4,71.5L153.8,177.1c-2.1,2.1-4.7,3.2-7.5,3.2c-2.8,0-5.5-1.1-7.7-3.2c-4.1-4.1-4.1-10.9,0-14.9
		L244.3,56.5c20.3-20.3,55.5-20.3,75.5,0l7.5,7.5l-14.9,15.1l-7.7-7.7C292.7,59.5,271.6,59.5,259.4,71.5L259.4,71.5z"/>
	<path class="st0" d="M74,347.5l90.5,90.7l-5.5,5.5l-14.3,4.5l-80.9-80.9l4.5-14.1L74,347.5z"/>
	<path class="st0" d="M68.3,353.3l-4.5,14.1L51.4,355c-3.2-3-4.1-7.7-2.3-11.5c0.4-1.3,1.3-2.3,2.3-3.4c4.1-4.3,10.9-4.3,15.1,0
		l7.5,7.5L68.3,353.3z"/>
	<path class="st0" d="M334.9,86.8L74,347.5l-7.5-7.5c-4.3-4.3-11.1-4.3-15.1,0L312.3,79.1l7.5,7.5c4.1,4.3,10.9,4.3,14.9,0
		L334.9,86.8z"/>
	<path class="st0" d="M51.4,340.1c-1.1,1.1-1.9,2.1-2.3,3.4C49.7,342.2,50.3,340.9,51.4,340.1L51.4,340.1z"/>
	<path class="st0" d="M167.7,463.4L13.9,511.6c-1.1,0.2-2.1,0.4-3.2,0.4c-2.8,0-5.5-1.1-7.5-3.2c-3-2.8-3.8-6.8-2.8-10.7l48.2-153.8
		c0.2-0.2,0.2-0.6,0.4-0.9c-1.7,3.8-0.9,8.5,2.3,11.5l12.4,12.4L26.9,485.1l117.8-36.9l12.4,12.4c1.9,2.1,4.7,3.2,7.5,3.2
		c1.5,0,2.8-0.2,4.1-0.9C168.3,463.1,167.9,463.1,167.7,463.4L167.7,463.4z"/>
</g>
</svg>
