<svg xmlns="http://www.w3.org/2000/svg" width="30" height="30" viewBox="0 0 30 30">
    <path fill="#D1DCE7" fill-rule="nonzero" d="M19.39 6.878c.183.476.403.915.659 1.317l-9.44 4.683a7.38 7.38 0 0 0-.658-1.317l9.44-4.683zM9.951 18.402l9.44 4.72a7.38 7.38 0 0 1 .658-1.317l-9.44-4.683a8.464 8.464 0 0 1-.658 1.28zm-5.195-8.158A4.747 4.747 0 0 0 0 15a4.747 4.747 0 0 0 4.756 4.756A4.747 4.747 0 0 0 9.512 15a4.747 4.747 0 0 0-4.756-4.756zm20.488-.732A4.747 4.747 0 0 0 30 4.756 4.747 4.747 0 0 0 25.244 0a4.747 4.747 0 0 0-4.756 4.756 4.747 4.747 0 0 0 4.756 4.756zm0 10.976a4.747 4.747 0 0 0-4.756 4.756A4.747 4.747 0 0 0 25.244 30 4.747 4.747 0 0 0 30 25.244a4.747 4.747 0 0 0-4.756-4.756z"/>
</svg>
