<svg xmlns="http://www.w3.org/2000/svg" width="27" height="31" viewBox="0 0 27 31">
    <path fill="#D1DCE7" fill-rule="evenodd" d="M5.726.76l10.501 2.61a1.89 1.89 0 0 1 1.181.889l8.987 15.567a1.89 1.89 0 0 1-.691 2.581L12.19 30.21a1.89 1.89 0 0 1-2.582-.692L.622 13.952a1.89 1.89 0 0 1-.179-1.47L3.454 2.07A1.89 1.89 0 0 1 5.726.759zm5.181 21.087a1 1 0 1 0 1 1.732 1 1 0 0 0-1-1.732zm8.052-4.36l-5.629 3.25a.75.75 0 1 0 .75 1.299l5.63-3.25a.75.75 0 0 0-.75-1.299zm-10.052.896a1 1 0 1 0 1 1.732 1 1 0 0 0-1-1.732zm8.052-4.36l-5.629 3.25a.75.75 0 1 0 .75 1.299l5.63-3.25a.75.75 0 0 0-.75-1.3zm-10.052.896a1 1 0 1 0 1 1.732 1 1 0 0 0-1-1.732zm8.052-4.36l-5.629 3.25a.75.75 0 1 0 .75 1.299l5.63-3.25a.75.75 0 0 0-.75-1.3zM6.7 5.094a1.754 1.754 0 1 0 1.754 3.038 1.754 1.754 0 0 0-1.754-3.038z"/>
</svg>
